<svg xmlns="http://www.w3.org/2000/svg" width="121.485" height="47.868" viewBox="0 0 121.485 47.868"><defs><style>.a{fill:#fa6557;}.b{fill:#f2b257;}.c{fill:#53c092;}.d{fill:#238e81;}.e{fill:#d2e176;}.f{fill:#b74b4b;}.g{fill:#fff;}</style></defs><g transform="translate(0 0)"><rect class="a" width="8.446" height="17.017" transform="translate(113.036 13.958)"/><path class="b" d="M-157.654-482.043h8.446a8.445,8.445,0,0,0-8.446-8.446Z" transform="translate(270.69 513.024)"/><g transform="translate(270.69 513.024)"><path class="c" d="M-166.078-482.049v14.705a16.814,16.814,0,0,0,8.311,2.188V-473.6A8.447,8.447,0,0,1-166.078-482.049Z"/><path class="d" d="M-174.659-482.049a16.882,16.882,0,0,0,8.581,14.705v-14.705Z"/></g><g transform="translate(270.69 513.024)"><path class="e" d="M-157.654-482.049v8.452a8.445,8.445,0,0,0,8.446-8.446v-.006Z"/></g><g transform="translate(270.69 513.024)"><path class="f" d="M-149.205-510.514h-8.452a8.445,8.445,0,0,0,8.446,8.446h.006Z"/></g><g transform="translate(270.69 513.024)"><rect class="g" width="3.517" height="13.596" transform="translate(-187.17 -505.028)"/><path class="g" d="M-194.623-505.018v6.668h0v3.506a3.51,3.51,0,0,1-3.517,3.505v3.506a7.032,7.032,0,0,0,7.033-6.916c0-.032,0-.063,0-.1h0v-10.174Z"/><path class="g" d="M-253.531-498.24h0v-3.422h0v-.426h3.312v-3.3h-3.312v-3.135h-3.312v.018h0v10.267h0a6.819,6.819,0,0,0,6.829,6.808v-3.3A3.512,3.512,0,0,1-253.531-498.24Z"/><path class="g" d="M-246.723-498.166v6.734h.037l3.28-.023v-6.734a3.519,3.519,0,0,1,3.521-3.51v-3.274A6.827,6.827,0,0,0-246.723-498.166Z"/><path class="g" d="M-218.051-498.24h0v-3.848h3.313v-3.3h-3.313v-3.135h-3.312v.018h0v10.221h0v.046h0a6.819,6.819,0,0,0,6.829,6.808v-3.3A3.512,3.512,0,0,1-218.051-498.24Z"/><path class="g" d="M-224.331-494.734v-3.459h0v-.047h0a6.82,6.82,0,0,0-6.857-6.807,6.818,6.818,0,0,0-6.829,6.807h.027a6.858,6.858,0,0,0,6.867,6.807,6.811,6.811,0,0,0,3.87-1.223v1.224h2.931v-3.3Zm-3.312-3.446a3.5,3.5,0,0,1-3.48,3.464,3.582,3.582,0,0,1-3.573-3.524,3.5,3.5,0,0,1,3.475-3.459,3.533,3.533,0,0,1,3.578,3.488Z"/><path class="g" d="M-166.421-498.193h0v-.047h0a6.882,6.882,0,0,0-6.857-6.807,6.818,6.818,0,0,0-6.829,6.807h0a6.842,6.842,0,0,0,6.829,6.806h.028a6.8,6.8,0,0,0,3.955-1.277v1.278h2.883Zm-3.34-.009a3.5,3.5,0,0,1-3.489,3.486v-.018h-.037a3.5,3.5,0,0,1-3.5-3.506,3.5,3.5,0,0,1,3.507-3.459,3.536,3.536,0,0,1,3.545,3.459h-.028Z"/><path class="g" d="M-205.174-504.825A6.818,6.818,0,0,0-212-498.046h0v.028h0a6.818,6.818,0,0,0,6.829,6.789v-.01a6.78,6.78,0,0,0,4.755-1.939l-2.515-2.028h-.289a3.439,3.439,0,0,1-1.951.666h0a3.517,3.517,0,0,1-3.362-2.473h10.094a6.656,6.656,0,0,0,.1-1h0A6.827,6.827,0,0,0-205.174-504.825Zm-3.3,5.591a3.509,3.509,0,0,1,3.3-2.28,3.518,3.518,0,0,1,3.3,2.28Z"/><path class="g" d="M-262.213-499.066a18.042,18.042,0,0,0-2.347-.816c-.706-.205-1.252-.384-1.639-.541a2.974,2.974,0,0,1-.97-.612,1.256,1.256,0,0,1-.394-.949,1.527,1.527,0,0,1,.518-1.245,2.11,2.11,0,0,1,1.385-.429,2.483,2.483,0,0,1,1.6.48,1.608,1.608,0,0,1,.645,1.213h3.257a3.935,3.935,0,0,0-1.577-2.989,6,6,0,0,0-3.71-1.072,6.912,6.912,0,0,0-2.706.5,4.15,4.15,0,0,0-1.838,1.44,3.748,3.748,0,0,0-.654,2.2,3.34,3.34,0,0,0,.645,2.153,4.023,4.023,0,0,0,1.54,1.2,18.423,18.423,0,0,0,2.337.807,16.868,16.868,0,0,1,1.661.521,2.855,2.855,0,0,1,1,.642,1.428,1.428,0,0,1,.4,1.041,1.539,1.539,0,0,1-.592,1.255,2.505,2.505,0,0,1-1.628.481,2.345,2.345,0,0,1-1.6-.51,1.966,1.966,0,0,1-.645-1.389h-3.17a3.751,3.751,0,0,0,.741,2.265,4.521,4.521,0,0,0,1.955,1.47,7.2,7.2,0,0,0,2.777.51,6.322,6.322,0,0,0,2.815-.581,4.274,4.274,0,0,0,1.794-1.562,3.921,3.921,0,0,0,.614-2.123,3.321,3.321,0,0,0-.654-2.143A4.231,4.231,0,0,0-262.213-499.066Z"/><circle class="g" cx="1.993" cy="1.993" r="1.993" transform="matrix(0.554, -0.832, 0.832, 0.554, -195.628, -509.653)"/><circle class="g" cx="1.993" cy="1.993" r="1.993" transform="translate(-188.228 -510.096) rotate(-47.278)"/><circle class="g" cx="1.993" cy="1.993" r="1.993" transform="translate(-203.08 -509.653) rotate(-56.345)"/></g></g></svg>